<?xml version="1.0" standalone="no"?>
<!DOCTYPE svg PUBLIC "-//W3C//DTD SVG 20010904//EN"
 "http://www.w3.org/TR/2001/REC-SVG-20010904/DTD/svg10.dtd">
<svg version="1.0" xmlns="http://www.w3.org/2000/svg"
 width="1682.000000pt" height="1682.000000pt" viewBox="0 0 1682.000000 1682.000000"
 preserveAspectRatio="xMidYMid meet">
<metadata>
Created by potrace 1.11, written by Peter Selinger 2001-2013
</metadata>
<g transform="translate(0.000000,1682.000000) scale(0.100000,-0.100000)"
fill="#000000" stroke="none">
<path d="M8039 16806 c-2 -2 -66 -7 -142 -11 -76 -3 -148 -8 -160 -10 -12 -2
-62 -6 -112 -10 -49 -4 -99 -9 -110 -10 -11 -2 -47 -6 -80 -10 -174 -19 -294
-37 -535 -80 -207 -38 -210 -38 -335 -66 -49 -12 -98 -22 -108 -24 -9 -2 -43
-11 -75 -19 -31 -9 -68 -18 -82 -22 -409 -102 -962 -295 -1313 -458 -42 -20
-79 -36 -82 -36 -8 0 -385 -188 -490 -245 -86 -46 -214 -119 -320 -182 -112
-67 -386 -241 -395 -252 -3 -3 -45 -33 -95 -66 -181 -120 -575 -428 -731 -570
-6 -5 -46 -41 -90 -80 -189 -167 -591 -580 -775 -796 -115 -135 -137 -162
-253 -314 -64 -82 -119 -155 -124 -160 -46 -56 -346 -500 -364 -541 -6 -13
-15 -24 -20 -24 -4 0 -8 -4 -8 -9 0 -10 -107 -193 -141 -243 -11 -15 -19 -30
-19 -33 0 -3 -20 -40 -43 -83 -105 -186 -285 -555 -377 -772 -96 -227 -282
-745 -304 -845 -2 -5 -11 -37 -21 -70 -10 -33 -20 -64 -21 -70 -1 -5 -21 -81
-44 -168 -23 -87 -47 -186 -55 -220 -50 -231 -66 -306 -70 -332 -2 -16 -6 -41
-10 -55 -6 -31 -42 -248 -50 -310 -3 -25 -8 -56 -10 -70 -9 -66 -15 -110 -20
-160 -4 -30 -8 -66 -10 -80 -2 -14 -7 -61 -10 -105 -3 -44 -8 -98 -10 -120
-26 -287 -27 -1194 -1 -1332 2 -10 7 -59 10 -109 4 -50 8 -106 11 -125 2 -19
7 -57 9 -84 3 -28 8 -66 11 -85 2 -19 7 -51 9 -70 2 -19 7 -51 10 -70 3 -19 8
-53 12 -75 10 -71 23 -150 27 -170 4 -18 10 -49 23 -135 19 -114 156 -689 170
-712 3 -4 7 -16 9 -27 12 -62 140 -458 190 -587 156 -403 240 -594 385 -879
59 -115 119 -232 135 -260 282 -503 556 -905 894 -1314 58 -69 107 -128 110
-131 4 -3 24 -25 45 -50 156 -180 463 -493 646 -660 58 -52 107 -97 110 -100
35 -35 318 -269 399 -330 18 -14 47 -36 65 -51 60 -48 252 -187 392 -282 571
-387 1183 -700 1834 -937 150 -54 344 -120 370 -125 3 -1 43 -13 90 -27 84
-26 392 -111 440 -121 14 -3 68 -15 120 -27 106 -23 316 -66 370 -74 19 -3 46
-8 60 -11 14 -2 36 -7 50 -10 14 -2 48 -7 75 -11 28 -3 57 -8 67 -9 9 -2 38
-6 65 -10 26 -4 59 -8 73 -10 14 -2 52 -7 85 -10 33 -4 71 -8 85 -10 14 -2 59
-7 100 -11 41 -3 91 -8 110 -10 163 -15 317 -19 715 -19 410 0 523 3 725 19
60 5 156 15 210 21 19 2 60 7 90 10 30 3 82 10 115 15 33 5 80 12 105 15 58 8
99 14 130 20 14 3 39 7 55 10 17 3 41 7 55 10 13 2 42 7 65 10 22 4 56 10 75
15 19 5 51 12 70 15 44 7 88 17 275 62 83 19 155 36 160 38 21 4 105 28 255
72 629 185 1207 432 1822 781 225 128 594 372 833 552 161 121 440 346 495
399 9 9 47 43 85 76 112 95 571 558 693 699 359 411 661 828 933 1284 239 402
502 955 651 1372 75 210 177 522 193 590 2 8 21 83 44 165 22 83 54 211 71
286 31 138 35 156 46 219 4 19 9 44 11 55 4 19 44 257 58 340 3 22 8 58 11 80
3 22 9 69 14 105 9 66 20 164 25 229 2 20 6 65 9 101 34 347 39 924 12 1330
-6 82 -17 215 -21 245 -2 17 -7 57 -10 90 -6 61 -9 84 -20 165 -3 25 -8 63
-10 84 -3 22 -7 52 -10 68 -3 15 -7 43 -10 61 -3 17 -10 57 -15 87 -5 30 -12
71 -15 90 -13 81 -59 304 -87 420 -16 69 -31 134 -34 145 -9 46 -78 291 -125
445 -164 529 -397 1077 -659 1549 -78 141 -101 181 -165 289 -124 210 -383
589 -544 795 -85 109 -274 341 -291 357 -3 3 -23 25 -44 50 -167 192 -489 522
-650 665 -43 39 -88 79 -100 90 -93 88 -488 407 -601 485 -27 19 -52 38 -55
41 -19 21 -327 229 -340 229 -5 0 -10 4 -12 8 -5 12 -282 183 -438 270 -417
232 -792 406 -1220 565 -232 86 -578 196 -769 243 -233 57 -449 106 -566 128
-43 8 -253 44 -297 50 -21 3 -55 9 -75 12 -20 3 -48 7 -62 8 -15 2 -46 6 -71
9 -61 9 -124 16 -195 23 -33 3 -73 7 -90 9 -16 2 -79 7 -140 10 -60 4 -121 9
-135 12 -28 6 -875 14 -881 9z"/>
</g>
</svg>
